<svg width="24" height="24" viewBox="0 0 24 24" fill="none" xmlns="http://www.w3.org/2000/svg">
<path d="M9 2C9.26522 2 9.51957 2.10536 9.70711 2.29289C9.89464 2.48043 10 2.73478 10 3V4H14V3C14 2.73478 14.1054 2.48043 14.2929 2.29289C14.4804 2.10536 14.7348 2 15 2C15.2652 2 15.5196 2.10536 15.7071 2.29289C15.8946 2.48043 16 2.73478 16 3V4H18C18.7956 4 19.5587 4.31607 20.1213 4.87868C20.6839 5.44129 21 6.20435 21 7V18C21 18.7956 20.6839 19.5587 20.1213 20.1213C19.5587 20.6839 18.7956 21 18 21H6C5.20435 21 4.44129 20.6839 3.87868 20.1213C3.31607 19.5587 3 18.7956 3 18V7C3 6.20435 3.31607 5.44129 3.87868 4.87868C4.44129 4.31607 5.20435 4 6 4H8V3C8 2.73478 8.10536 2.48043 8.29289 2.29289C8.48043 2.10536 8.73478 2 9 2ZM6 6C5.73478 6 5.48043 6.10536 5.29289 6.29289C5.10536 6.48043 5 6.73478 5 7V8H19V7C19 6.73478 18.8946 6.48043 18.7071 6.29289C18.5196 6.10536 18.2652 6 18 6H6ZM19 10H5V18C5 18.2652 5.10536 18.5196 5.29289 18.7071C5.48043 18.8946 5.73478 19 6 19H18C18.2652 19 18.5196 18.8946 18.7071 18.7071C18.8946 18.5196 19 18.2652 19 18V10Z" fill="white"/>
<path d="M14.2929 6.58577C14.4804 6.7733 14.7348 6.87866 15 6.87866C15.2652 6.87866 15.5196 6.7733 15.7071 6.58577C15.8947 6.39823 16 6.14388 16 5.87866L18 5.87866C18.7957 5.87866 20.1213 4.99998 20.1213 4.99998L3.8787 4.99998C3.8787 4.99998 5.20437 5.87866 6.00002 5.87866L8.00002 5.87866C8.00002 6.14388 8.10537 6.39823 8.29291 6.58577C8.48045 6.7733 8.7348 6.87866 9.00002 6.87866C9.26523 6.87866 9.51959 6.7733 9.70712 6.58577C9.89466 6.39823 10 6.14388 10 5.87866L14 5.87866C14 6.14388 14.1054 6.39823 14.2929 6.58577Z" fill="white"/>
<rect x="7" y="12" width="2" height="2" fill="white"/>
<rect x="7" y="15" width="2" height="2" fill="white"/>
<rect x="11" y="12" width="2" height="2" fill="white"/>
<rect x="11" y="15" width="2" height="2" fill="white"/>
<rect x="15" y="12" width="2" height="2" fill="white"/>
</svg>
